<style type="text/css">
    :root {
        --flagIN-red: #FF9933;
        --flagIN-green: #138808;
        --flagIN-blue: #000080;
    }
</style>

<svg xmlns="http://www.w3.org/2000/svg" width="900" height="600" viewBox="0 0 900 600">

    <link xmlns="http://www.w3.org/1999/xhtml" rel="stylesheet" href="flagStyle.css" type="text/css" />

    <rect x="0" y="0" width="900" height="200" fill="var(--flagIN-red)" />
    <rect x="0" y="200" width="900" height="200" fill="white" />
    <rect x=" 0" y="400" width="900" height="200" fill="var(--flagIN-green)" />
    <circle cx=" 450" cy="300" r="100" fill="red" />


    <g >
        <rect x="450" y="300" width="400" height="100" transform="rotate(-20 450 300)"/>
    </g>

    <rect x="70" y="30" width="200" height="40"  
 transform="rotate(0 50 50)" style="fill: black;"/>  



 <!-- <path d="M 10 10 H 90 V 90 H 10 L 10 10"/> -->
 <!-- <path d="M 10 300 H 300 V 400 H 10 L 10 300" fill='blue'/> -->
<!-- <path d="M 100 220 H 220 V 330 H 100 Z" fill="none" stroke="black" stroke-width="10"/> -->
<!-- <path d="M 100 220 h 220 v 130 h -100 Z" fill="none" stroke="black" stroke-width="10"/> -->

<!-- <polygon points="10 300 300 300 300 400" /> -->


<!-- <path d="M 10 200 C 0 00 400 200 200 300" stroke="blue" fill="transparent" stroke-width="10"/> -->


<path d="M 200 300 A 100 100 0 0 0 100 400 " stroke="purple" fill="transparent" stroke-width="10"/>

</svg>