<?xml version="1.0" encoding="UTF-8" standalone="no"?>
<!-- Created with Inkscape (http://www.inkscape.org/) -->

<svg
   xmlns:dc="http://purl.org/dc/elements/1.1/"
   xmlns:cc="http://creativecommons.org/ns#"
   xmlns:rdf="http://www.w3.org/1999/02/22-rdf-syntax-ns#"
   xmlns:svg="http://www.w3.org/2000/svg"
   xmlns="http://www.w3.org/2000/svg"
   xmlns:sodipodi="http://sodipodi.sourceforge.net/DTD/sodipodi-0.dtd"
   xmlns:inkscape="http://www.inkscape.org/namespaces/inkscape"
   width="210mm"
   height="297mm"
   viewBox="0 0 210 297"
   version="1.1"
   id="svg832"
   inkscape:version="0.92.3 (2405546, 2018-03-11)"
   sodipodi:docname="Rupee_Symbol_20190521_1652.svg">
  <defs
     id="defs826" />
  <sodipodi:namedview
     id="base"
     pagecolor="#ffffff"
     bordercolor="#666666"
     borderopacity="1.0"
     inkscape:pageopacity="0.0"
     inkscape:pageshadow="2"
     inkscape:zoom="11.2"
     inkscape:cx="305.47985"
     inkscape:cy="854.87575"
     inkscape:document-units="mm"
     inkscape:current-layer="layer1"
     showgrid="true"
     inkscape:window-width="1920"
     inkscape:window-height="1017"
     inkscape:window-x="-8"
     inkscape:window-y="-8"
     inkscape:window-maximized="1">
    <inkscape:grid
       type="xygrid"
       id="grid1377"
       units="mm"
       spacingx="0.5"
       spacingy="0.5"
       empspacing="5" />
  </sodipodi:namedview>
  <metadata
     id="metadata829">
    <rdf:RDF>
      <cc:Work
         rdf:about="">
        <dc:format>image/svg+xml</dc:format>
        <dc:type
           rdf:resource="http://purl.org/dc/dcmitype/StillImage" />
        <dc:title></dc:title>
      </cc:Work>
    </rdf:RDF>
  </metadata>
  <g
     inkscape:label="Layer 1"
     inkscape:groupmode="layer"
     id="layer1">
    <path
       style="fill:#ff0000;stroke:none;stroke-width:0.26499999;stroke-linecap:butt;stroke-linejoin:miter;stroke-miterlimit:4;stroke-dasharray:none;stroke-opacity:1"
       d="m 84.999998,68.5 1.000001,-1.500002 h 9 l -1,1.500002 z"
       id="path1421"
       inkscape:connector-curvature="0" />
    <path
       inkscape:connector-curvature="0"
       style="fill:#010101;stroke-width:0.26458332"
       d="m 76.657222,68.364693 h 2.417051 l 0.925675,-1.391338 H 70.925676 L 70,68.364693 h 1.575132 c 1.595574,0 3.068156,0.123234 3.657054,1.457559 h -4.30651 L 70,71.213652 h 5.405905 c -1.18e-4,0.0031 -1.18e-4,0.0062 -1.18e-4,0.0088 0,0.999897 -0.83095,2.533628 -3.574821,2.533628 l -1.327607,-0.0015 0.0015,1.29997 5.316957,6.64545 h 2.367804 l -5.503104,-6.875186 c 2.265354,-0.122174 4.389979,-1.388044 4.696242,-3.611581 h 1.691595 l 0.925675,-1.391398 h -2.641481 c -0.106593,-0.536001 -0.338197,-1.05456 -0.701294,-1.457433 z"
       id="path2" />
    <path
       style="fill:#ff0000;stroke:none;stroke-width:0.26499999;stroke-linecap:butt;stroke-linejoin:miter;stroke-miterlimit:4;stroke-dasharray:none;stroke-opacity:1"
       d="m 84.999997,71.5 1.000001,-1.500002 h 9 l -1,1.500002 z"
       id="path1421-9"
       inkscape:connector-curvature="0" />
    <path
       style="fill:#ff0000;stroke:none;stroke-width:0.26458332px;stroke-linecap:butt;stroke-linejoin:miter;stroke-opacity:1"
       d="M 85.5,73.5 V 75 h 1.999999 v -1.5 z"
       id="path1440"
       inkscape:connector-curvature="0" />
    <path
       style="fill:#ff0000;stroke:none;stroke-width:0.26458332px;stroke-linecap:butt;stroke-linejoin:miter;stroke-opacity:1"
       d="m 85.5,75 5.499999,6.999999 h 1.999999 L 87.5,74.5 Z"
       id="path1438"
       inkscape:connector-curvature="0"
       sodipodi:nodetypes="ccccc" />
    <path
       style="fill:#ff0000;stroke:none;stroke-width:0.26458332px;stroke-linecap:butt;stroke-linejoin:miter;stroke-opacity:1"
       d="M 87.499999,68.5 V 67 c 0,0 5,0.499999 5,4 0,3.499998 -5,3.499999 -5,3.499999 V 73.5 v 0 c 0,0 2.999999,0 2.999999,-2.5 0,-2.5 -2.999999,-2.5 -2.999999,-2.5"
       id="path1456"
       inkscape:connector-curvature="0"
       sodipodi:nodetypes="ccscccsc" />
    <path
       style="fill:#ff0000;stroke:none;stroke-width:0.26499999;stroke-linecap:butt;stroke-linejoin:miter;stroke-miterlimit:4;stroke-dasharray:none;stroke-opacity:1"
       d="m 58.999998,84.999999 1.000001,-1.500002 h 9 l -1,1.500002 z"
       id="path1421-1"
       inkscape:connector-curvature="0" />
    <path
       style="fill:#ff0000;stroke:none;stroke-width:0.26499999;stroke-linecap:butt;stroke-linejoin:miter;stroke-miterlimit:4;stroke-dasharray:none;stroke-opacity:1"
       d="m 58.999997,87.999999 1.000001,-1.500002 h 9 l -1,1.500002 z"
       id="path1421-9-5"
       inkscape:connector-curvature="0" />
    <path
       style="fill:#800000;stroke:none;stroke-width:0.26458332px;stroke-linecap:butt;stroke-linejoin:miter;stroke-opacity:1"
       d="m 59.5,89.999999 v 1.5 h 1.999999 v -1.5 z"
       id="path1440-1"
       inkscape:connector-curvature="0" />
    <path
       style="fill:none;stroke:#000000;stroke-width:0.26458332px;stroke-linecap:butt;stroke-linejoin:miter;stroke-opacity:1"
       d="m 61.499999,84.999999 c 0,0 2.999999,0 2.999999,2.5 0,2.5 -2.999999,2.5 -2.999999,2.5 v 0"
       id="path1442-4"
       inkscape:connector-curvature="0" />
    <path
       style="fill:none;stroke:#000000;stroke-width:0.26458332px;stroke-linecap:butt;stroke-linejoin:miter;stroke-opacity:1"
       d="m 61.499999,89.999999 v 1"
       id="path1446-6"
       inkscape:connector-curvature="0" />
    <path
       style="fill:#ff0000;stroke:none;stroke-width:0.26458332px;stroke-linecap:butt;stroke-linejoin:miter;stroke-opacity:1"
       d="m 59.5,91.499999 5.499999,6.999999 h 1.999999 L 61.5,90.999999 Z"
       id="path1438-1"
       inkscape:connector-curvature="0"
       sodipodi:nodetypes="ccccc" />
    <path
       style="fill:none;stroke:#000000;stroke-width:0.26458332px;stroke-linecap:butt;stroke-linejoin:miter;stroke-opacity:1"
       d="m 61.499999,83.499999 c 0,0 5,0.499999 5,4 0,3.499998 -5,3.499998 -5,3.499998"
       id="path1454-3"
       inkscape:connector-curvature="0" />
    <path
       style="fill:none;stroke:#000000;stroke-width:0.26458332px;stroke-linecap:butt;stroke-linejoin:miter;stroke-opacity:1"
       d="m 61.499999,83.499999 v 1.5"
       id="path1456-6"
       inkscape:connector-curvature="0" />
  </g>
</svg>
